<?xml version="1.0" encoding="utf-8"?>
<svg xmlns="http://www.w3.org/2000/svg" baseProfile="basic" viewBox="0 0 48 48" width="256" height="256">
  <circle cx="24" cy="24" r="20" fill="#6c19ff" />
  <path fill="#2100c4" d="M9.625,29.5c0.565,0,1.11-0.075,1.635-0.204c-0.003,0.068-0.01,0.135-0.01,0.204c0,3.038,2.462,5.5,5.5,5.5s5.5-2.462,5.5-5.5s-2.462-5.5-5.5-5.5c-0.132,0-0.262,0.01-0.392,0.02c0.093-0.45,0.142-0.917,0.142-1.395c0-0.765-0.13-1.499-0.361-2.187c0.203,0.024,0.402,0.062,0.611,0.062c2.899,0,5.25-2.351,5.25-5.25c0-2.9-2.351-5.25-5.25-5.25c-2.522,0-4.625,1.78-5.131,4.151C10.724,13.442,9.606,13,8.375,13c-0.402,0-0.789,0.054-1.165,0.14c-2.678,4.132-3.661,9.03-2.979,13.738C5.489,28.473,7.435,29.5,9.625,29.5z" />
  <path fill="#2100c4" d="M37,14.5c0,1.933,1.567,3.5,3.5,3.5c0.871,0,1.657-0.33,2.27-0.856c-0.771-2.117-1.9-4.13-3.409-5.938C37.99,11.68,37,12.968,37,14.5z" />
  <circle cx="10.5" cy="18.5" r="1.5" fill="#a64aff" />
  <circle cx="12" cy="24" r="2" fill="#a64aff" />
  <circle cx="28.938" cy="16.063" r="4.063" fill="#2100c4" />
  <circle cx="18.625" cy="14.875" r="6.875" fill="#2100c4" />
  <circle cx="33" cy="23" r="5" fill="#2100c4" />
  <circle cx="17.5" cy="20.5" r="2.5" fill="#a64aff" />
</svg>