<?xml version="1.0" encoding="utf-8"?>
<svg xmlns="http://www.w3.org/2000/svg" viewBox="0 0 64 64" width="40" height="40">
  <linearGradient id="LIkZGRuq4z_lZx3WMkUWJa" x1="32" x2="32" y1="45.75" y2="48.378" gradientUnits="userSpaceOnUse" spreadMethod="reflect">
    <stop offset="0" stop-color="#6dc7ff" />
    <stop offset="1" stop-color="#e6abff" />
  </linearGradient>
  <path fill="url(#LIkZGRuq4z_lZx3WMkUWJa)" d="M40 48L24 48 25 46 39 46z" />
  <linearGradient id="LIkZGRuq4z_lZx3WMkUWJb" x1="32" x2="32" y1="5" y2="60.111" gradientUnits="userSpaceOnUse" spreadMethod="reflect">
    <stop offset="0" stop-color="#1a6dff" />
    <stop offset="1" stop-color="#c822ff" />
  </linearGradient>
  <path fill="url(#LIkZGRuq4z_lZx3WMkUWJb)" d="M32,6C17.663,6,6,17.663,6,32s11.663,26,26,26s26-11.663,26-26S46.337,6,32,6z M32,56 C18.767,56,8,45.233,8,32S18.767,8,32,8s24,10.767,24,24S45.233,56,32,56z" />
  <linearGradient id="LIkZGRuq4z_lZx3WMkUWJc" x1="32" x2="32" y1="5" y2="60.111" gradientUnits="userSpaceOnUse" spreadMethod="reflect">
    <stop offset="0" stop-color="#1a6dff" />
    <stop offset="1" stop-color="#c822ff" />
  </linearGradient>
  <path fill="url(#LIkZGRuq4z_lZx3WMkUWJc)" d="M37,32v-1.214c0-0.651-0.125-1.249-0.372-1.854l-2.754-6.689 C33.586,21.442,32.85,21,31.999,21c-0.001,0-0.002,0-0.003,0c-0.849,0-1.585,0.438-1.861,1.201l-2.764,6.693 C27.125,29.497,27,30.133,27,30.784V32c0,2.757,2.243,5,5,5S37,34.757,37,32z M32.008,22.885l1.832,4.476 C33.269,27.134,32.651,27,32,27c-0.649,0-1.265,0.133-1.834,0.359L32.008,22.885z M29,32c0-1.654,1.346-3,3-3s3,1.346,3,3 s-1.346,3-3,3S29,33.654,29,32z" />
  <linearGradient id="LIkZGRuq4z_lZx3WMkUWJd" x1="32" x2="32" y1="5" y2="60.111" gradientUnits="userSpaceOnUse" spreadMethod="reflect">
    <stop offset="0" stop-color="#1a6dff" />
    <stop offset="1" stop-color="#c822ff" />
  </linearGradient>
  <path fill="url(#LIkZGRuq4z_lZx3WMkUWJd)" d="M40.446,45.657C39.937,44.635,38.909,44,37.767,44H26.233c-1.143,0-2.17,0.635-2.68,1.656 l-0.727,1.453c-0.312,0.624-0.278,1.352,0.089,1.944C23.282,49.646,23.918,50,24.614,50h14.771c0.696,0,1.332-0.354,1.698-0.946 c0.367-0.593,0.4-1.32,0.089-1.945L40.446,45.657z M24.616,48.003l0.727-1.453c0.17-0.339,0.511-0.55,0.891-0.55h11.533 c0.38,0,0.721,0.211,0.891,0.551L39.39,48L24.616,48.003z" />
  <linearGradient id="LIkZGRuq4z_lZx3WMkUWJe" x1="32" x2="32" y1="5" y2="60.111" gradientUnits="userSpaceOnUse" spreadMethod="reflect">
    <stop offset="0" stop-color="#1a6dff" />
    <stop offset="1" stop-color="#c822ff" />
  </linearGradient>
  <path fill="url(#LIkZGRuq4z_lZx3WMkUWJe)" d="M32,10c-12.131,0-22,9.869-22,22c0,5.79,2.231,11.258,6.286,15.397l0.859,0.871l4.248-4.248 l-0.686-0.686c-1.476-1.47-2.622-3.18-3.418-5.038l-0.135-0.326C16.402,36.098,16,34.081,16,32c0-8.822,7.178-16,16-16 s16,7.178,16,16c0,2.079-0.401,4.093-1.152,5.964l-0.14,0.339c-0.795,1.855-1.94,3.562-3.414,5.03l-0.688,0.688l4.248,4.248 l0.859-0.871C51.768,43.261,54,37.792,54,32C54,19.869,44.131,10,32,10z M51.954,33c-0.097,1.973-0.475,3.894-1.125,5.717 l-1.853-0.768c0.552-1.581,0.881-3.241,0.975-4.949H51.954z M49.949,31c-0.096-1.725-0.43-3.383-0.98-4.946l1.847-0.765 c0.645,1.801,1.033,3.716,1.133,5.712H49.949z M14.049,33c0.093,1.708,0.422,3.369,0.975,4.949l-1.854,0.768 c-0.649-1.823-1.027-3.744-1.125-5.717H14.049z M12.051,31c0.099-1.995,0.488-3.911,1.133-5.712l1.847,0.765 c-0.55,1.563-0.884,3.221-0.98,4.946H12.051z M13.951,23.442c0.844-1.772,1.937-3.397,3.24-4.836l1.414,1.414 c-1.121,1.252-2.066,2.659-2.805,4.188L13.951,23.442z M18.605,17.191c1.439-1.303,3.064-2.396,4.836-3.24l0.766,1.849 c-1.529,0.739-2.936,1.684-4.188,2.805L18.605,17.191z M25.288,13.183c1.801-0.644,3.716-1.033,5.712-1.133v2 c-1.725,0.096-3.383,0.43-4.947,0.98L25.288,13.183z M33,12.051c1.995,0.099,3.911,0.488,5.712,1.133l-0.765,1.847 c-1.563-0.55-3.221-0.884-4.947-0.98V12.051z M40.558,13.951c1.772,0.844,3.397,1.937,4.836,3.24l-1.414,1.414 c-1.252-1.121-2.659-2.066-4.188-2.805L40.558,13.951z M46.809,18.605c1.303,1.439,2.396,3.064,3.24,4.836L48.2,24.207 c-0.739-1.529-1.684-2.936-2.805-4.188L46.809,18.605z M13.932,40.566l1.858-0.769c0.727,1.509,1.668,2.915,2.81,4.189l-1.432,1.432 C15.84,43.952,14.762,42.315,13.932,40.566z M46.832,45.418L45.4,43.986c1.142-1.273,2.083-2.68,2.811-4.189l1.858,0.769 C49.238,42.316,48.16,43.953,46.832,45.418z" />
</svg>