<?xml version="1.0" encoding="utf-8"?>
<svg xmlns="http://www.w3.org/2000/svg" viewBox="0 0 48 48" width="256" height="256">
  <circle cx="27" cy="19" r="12" fill="#7da6d9" />
  <circle cx="35" cy="24" r="9" fill="#7da6d9" />
  <circle cx="29" cy="26" r="9" fill="#7da6d9" />
  <circle cx="18" cy="25" r="9" fill="#7da6d9" />
  <circle cx="23" cy="25" r="9" fill="#7da6d9" />
  <circle cx="11" cy="25" r="8" fill="#7da6d9" />
  <circle cx="16" cy="18" r="7" fill="#7da6d9" />
  <polygon fill="#ffa200" points="20,26 28,26 25,34 30,34 21,47 22,38 18,38" />
  <polygon fill="#ffa301" points="20.034,26 27.948,26 24.966,34.017 29.948,34.017 21.026,46.93 22.043,37.966 18.034,37.966" />
  <polygon fill="#ffa402" points="20.069,26 27.897,26 24.931,34.034 29.897,34.034 21.052,46.86 22.085,37.931 18.069,37.931" />
  <polygon fill="#ffa503" points="20.103,26 27.845,26 24.897,34.052 29.845,34.052 21.079,46.789 22.128,37.897 18.103,37.897" />
  <polygon fill="#ffa604" points="20.138,26 27.793,26 24.862,34.069 29.793,34.069 21.105,46.719 22.17,37.862 18.138,37.862" />
  <polygon fill="#ffa704" points="20.172,26 27.741,26 24.828,34.086 29.741,34.086 21.131,46.649 22.213,37.828 18.172,37.828" />
  <polygon fill="#ffa805" points="20.207,26 27.69,26 24.793,34.103 29.69,34.103 21.157,46.579 22.255,37.793 18.207,37.793" />
  <polygon fill="#ffa906" points="20.241,26 27.638,26 24.759,34.121 29.638,34.121 21.184,46.509 22.298,37.759 18.241,37.759" />
  <polygon fill="#ffaa07" points="20.276,26 27.586,26 24.724,34.138 29.586,34.138 21.21,46.438 22.34,37.724 18.276,37.724" />
  <polygon fill="#ffab08" points="20.31,26 27.534,26 24.69,34.155 29.534,34.155 21.236,46.368 22.383,37.69 18.31,37.69" />
  <polygon fill="#ffac09" points="20.345,26 27.483,26 24.655,34.172 29.483,34.172 21.262,46.298 22.426,37.655 18.345,37.655" />
  <polygon fill="#ffad0a" points="20.379,26 27.431,26 24.621,34.19 29.431,34.19 21.289,46.228 22.468,37.621 18.379,37.621" />
  <polygon fill="#ffae0b" points="20.414,26 27.379,26 24.586,34.207 29.379,34.207 21.315,46.158 22.511,37.586 18.414,37.586" />
  <polygon fill="#ffaf0b" points="20.448,26 27.328,26 24.552,34.224 29.328,34.224 21.341,46.087 22.553,37.552 18.448,37.552" />
  <polygon fill="#ffb00c" points="20.483,26 27.276,26 24.517,34.241 29.276,34.241 21.367,46.017 22.596,37.517 18.483,37.517" />
  <polygon fill="#ffb10d" points="20.517,26 27.224,26 24.483,34.259 29.224,34.259 21.394,45.947 22.638,37.483 18.517,37.483" />
  <polygon fill="#ffb20e" points="20.552,26 27.172,26 24.448,34.276 29.172,34.276 21.42,45.877 22.681,37.448 18.552,37.448" />
  <polygon fill="#ffb30f" points="20.586,26 27.121,26 24.414,34.293 29.121,34.293 21.446,45.807 22.723,37.414 18.586,37.414" />
  <polygon fill="#ffb410" points="20.621,26 27.069,26 24.379,34.31 29.069,34.31 21.472,45.737 22.766,37.379 18.621,37.379" />
  <polygon fill="#ffb511" points="20.655,26 27.017,26 24.345,34.328 29.017,34.328 21.499,45.666 22.808,37.345 18.655,37.345" />
  <polygon fill="#ffb612" points="20.69,26 26.966,26 24.31,34.345 28.966,34.345 21.525,45.596 22.851,37.31 18.69,37.31" />
  <polygon fill="#ffb712" points="20.724,26 26.914,26 24.276,34.362 28.914,34.362 21.551,45.526 22.894,37.276 18.724,37.276" />
  <polygon fill="#ffb813" points="20.759,26 26.862,26 24.241,34.379 28.862,34.379 21.577,45.456 22.936,37.241 18.759,37.241" />
  <polygon fill="#ffb914" points="20.793,26 26.81,26 24.207,34.397 28.81,34.397 21.603,45.386 22.979,37.207 18.793,37.207" />
  <polygon fill="#ffba15" points="20.828,26 26.759,26 24.172,34.414 28.759,34.414 21.63,45.315 23.021,37.172 18.828,37.172" />
  <polygon fill="#ffbb16" points="20.862,26 26.707,26 24.138,34.431 28.707,34.431 21.656,45.245 23.064,37.138 18.862,37.138" />
  <polygon fill="#ffbc17" points="20.897,26 26.655,26 24.103,34.448 28.655,34.448 21.682,45.175 23.106,37.103 18.897,37.103" />
  <polygon fill="#ffbd18" points="20.931,26 26.603,26 24.069,34.466 28.603,34.466 21.708,45.105 23.149,37.069 18.931,37.069" />
  <polygon fill="#ffbe19" points="20.966,26 26.552,26 24.034,34.483 28.552,34.483 21.735,45.035 23.191,37.034 18.966,37.034" />
  <polygon fill="#ffbf1a" points="21,26 26.5,26 24,34.5 28.5,34.5 21.761,44.964 23.234,37 19,37" />
  <polygon fill="#ffbf1a" points="21.034,26 26.448,26 23.966,34.517 28.448,34.517 21.787,44.894 23.277,36.966 19.034,36.966" />
  <polygon fill="#ffc01b" points="21.069,26 26.397,26 23.931,34.534 28.397,34.534 21.813,44.824 23.319,36.931 19.069,36.931" />
  <polygon fill="#ffc11c" points="21.103,26 26.345,26 23.897,34.552 28.345,34.552 21.84,44.754 23.362,36.897 19.103,36.897" />
  <polygon fill="#ffc21d" points="21.138,26 26.293,26 23.862,34.569 28.293,34.569 21.866,44.684 23.404,36.862 19.138,36.862" />
  <polygon fill="#ffc31e" points="21.172,26 26.241,26 23.828,34.586 28.241,34.586 21.892,44.613 23.447,36.828 19.172,36.828" />
  <polygon fill="#ffc41f" points="21.207,26 26.19,26 23.793,34.603 28.19,34.603 21.918,44.543 23.489,36.793 19.207,36.793" />
  <polygon fill="#ffc520" points="21.241,26 26.138,26 23.759,34.621 28.138,34.621 21.945,44.473 23.532,36.759 19.241,36.759" />
  <polygon fill="#ffc621" points="21.276,26 26.086,26 23.724,34.638 28.086,34.638 21.971,44.403 23.574,36.724 19.276,36.724" />
  <polygon fill="#ffc721" points="21.31,26 26.034,26 23.69,34.655 28.034,34.655 21.997,44.333 23.617,36.69 19.31,36.69" />
  <polygon fill="#ffc822" points="21.345,26 25.983,26 23.655,34.672 27.983,34.672 22.023,44.262 23.66,36.655 19.345,36.655" />
  <polygon fill="#ffc923" points="21.379,26 25.931,26 23.621,34.69 27.931,34.69 22.05,44.192 23.702,36.621 19.379,36.621" />
  <polygon fill="#ffca24" points="21.414,26 25.879,26 23.586,34.707 27.879,34.707 22.076,44.122 23.745,36.586 19.414,36.586" />
  <polygon fill="#ffcb25" points="21.448,26 25.828,26 23.552,34.724 27.828,34.724 22.102,44.052 23.787,36.552 19.448,36.552" />
  <polygon fill="#ffcc26" points="21.483,26 25.776,26 23.517,34.741 27.776,34.741 22.128,43.982 23.83,36.517 19.483,36.517" />
  <polygon fill="#ffcd27" points="21.517,26 25.724,26 23.483,34.759 27.724,34.759 22.155,43.911 23.872,36.483 19.517,36.483" />
  <polygon fill="#ffce28" points="21.552,26 25.672,26 23.448,34.776 27.672,34.776 22.181,43.841 23.915,36.448 19.552,36.448" />
  <polygon fill="#ffcf28" points="21.586,26 25.621,26 23.414,34.793 27.621,34.793 22.207,43.771 23.957,36.414 19.586,36.414" />
  <polygon fill="#ffd029" points="21.621,26 25.569,26 23.379,34.81 27.569,34.81 22.233,43.701 24,36.379 19.621,36.379" />
  <polygon fill="#ffd12a" points="21.655,26 25.517,26 23.345,34.828 27.517,34.828 22.259,43.631 24.042,36.345 19.655,36.345" />
  <polygon fill="#ffd22b" points="21.69,26 25.466,26 23.31,34.845 27.466,34.845 22.286,43.56 24.085,36.31 19.69,36.31" />
  <polygon fill="#ffd32c" points="21.724,26 25.414,26 23.276,34.862 27.414,34.862 22.312,43.49 24.128,36.276 19.724,36.276" />
  <polygon fill="#ffd42d" points="21.759,26 25.362,26 23.241,34.879 27.362,34.879 22.338,43.42 24.17,36.241 19.759,36.241" />
  <polygon fill="#ffd52e" points="21.793,26 25.31,26 23.207,34.897 27.31,34.897 22.364,43.35 24.213,36.207 19.793,36.207" />
  <polygon fill="#ffd62f" points="21.828,26 25.259,26 23.172,34.914 27.259,34.914 22.391,43.28 24.255,36.172 19.828,36.172" />
  <polygon fill="#ffd72f" points="21.862,26 25.207,26 23.138,34.931 27.207,34.931 22.417,43.21 24.298,36.138 19.862,36.138" />
  <polygon fill="#ffd830" points="21.897,26 25.155,26 23.103,34.948 27.155,34.948 22.443,43.139 24.34,36.103 19.897,36.103" />
  <polygon fill="#ffd931" points="21.931,26 25.103,26 23.069,34.966 27.103,34.966 22.469,43.069 24.383,36.069 19.931,36.069" />
  <polygon fill="#ffda32" points="21.966,26 25.052,26 23.034,34.983 27.052,34.983 22.496,42.999 24.425,36.034 19.966,36.034" />
  <polygon fill="#ffdb33" points="22,26 25,26 23,35 27,35 22.522,42.929 24.468,36 20,36" />
  <radialGradient id="hnSK9BI2xjQiBm8CZ2GRda" cx="27" cy="19" r="12" gradientUnits="userSpaceOnUse">
    <stop offset="0" stop-color="#e0ecff" />
    <stop offset="1" stop-color="#e0ecff" stop-opacity="0" />
  </radialGradient>
  <circle cx="27" cy="19" r="12" fill="url(#hnSK9BI2xjQiBm8CZ2GRda)" />
  <radialGradient id="hnSK9BI2xjQiBm8CZ2GRdb" cx="35" cy="24" r="9" gradientUnits="userSpaceOnUse">
    <stop offset="0" stop-color="#e0ecff" />
    <stop offset="1" stop-color="#e0ecff" stop-opacity="0" />
  </radialGradient>
  <circle cx="35" cy="24" r="9" fill="url(#hnSK9BI2xjQiBm8CZ2GRdb)" />
  <radialGradient id="hnSK9BI2xjQiBm8CZ2GRdc" cx="29" cy="24" r="9" gradientUnits="userSpaceOnUse">
    <stop offset="0" stop-color="#e0ecff" />
    <stop offset="1" stop-color="#e0ecff" stop-opacity="0" />
  </radialGradient>
  <circle cx="29" cy="24" r="9" fill="url(#hnSK9BI2xjQiBm8CZ2GRdc)" />
  <radialGradient id="hnSK9BI2xjQiBm8CZ2GRdd" cx="18" cy="24" r="9" gradientUnits="userSpaceOnUse">
    <stop offset="0" stop-color="#e0ecff" />
    <stop offset="1" stop-color="#e0ecff" stop-opacity="0" />
  </radialGradient>
  <circle cx="18" cy="24" r="9" fill="url(#hnSK9BI2xjQiBm8CZ2GRdd)" />
  <radialGradient id="hnSK9BI2xjQiBm8CZ2GRde" cx="23" cy="23" r="9" gradientUnits="userSpaceOnUse">
    <stop offset="0" stop-color="#e0ecff" />
    <stop offset="1" stop-color="#e0ecff" stop-opacity="0" />
  </radialGradient>
  <circle cx="23" cy="23" r="9" fill="url(#hnSK9BI2xjQiBm8CZ2GRde)" />
  <radialGradient id="hnSK9BI2xjQiBm8CZ2GRdf" cx="11" cy="25" r="8" gradientUnits="userSpaceOnUse">
    <stop offset="0" stop-color="#e0ecff" />
    <stop offset="1" stop-color="#e0ecff" stop-opacity="0" />
  </radialGradient>
  <circle cx="11" cy="25" r="8" fill="url(#hnSK9BI2xjQiBm8CZ2GRdf)" />
  <radialGradient id="hnSK9BI2xjQiBm8CZ2GRdg" cx="16" cy="18" r="7" gradientUnits="userSpaceOnUse">
    <stop offset="0" stop-color="#e0ecff" />
    <stop offset="1" stop-color="#e0ecff" stop-opacity="0" />
  </radialGradient>
  <circle cx="16" cy="18" r="7" fill="url(#hnSK9BI2xjQiBm8CZ2GRdg)" />
</svg>